<svg width="24" height="24" viewBox="0 0 24 24" fill="none" xmlns="http://www.w3.org/2000/svg">
<g clip-path="url(#clip0_3389_6379)">
<rect width="24" height="24" rx="12" fill="white"/>
<path d="M7.90756 8.01172C7.49138 8.01172 7.0752 8.28918 7.0752 8.70536C7.0752 9.12155 7.49138 9.399 7.90756 9.399C8.32375 9.399 8.60121 9.12155 8.60121 8.70536C8.60121 8.27183 8.32375 8.01172 7.90756 8.01172ZM13.5434 12.0348C13.2659 12.0348 13.0058 12.3296 13.0058 12.5898C13.0058 12.8846 13.2833 13.1447 13.5434 13.1447C13.9596 13.1447 14.237 12.8672 14.237 12.5898C14.237 12.3123 13.9596 12.0348 13.5434 12.0348ZM11.7573 9.399C12.1735 9.399 12.4509 9.1042 12.4509 8.70536C12.4509 8.28918 12.1735 8.01172 11.7573 8.01172C11.3411 8.01172 10.9249 8.28918 10.9249 8.70536C10.9249 9.12155 11.3411 9.399 11.7573 9.399ZM16.5607 12.0348C16.2833 12.0348 16.0232 12.3296 16.0232 12.5898C16.0232 12.8846 16.3006 13.1447 16.5607 13.1447C16.9769 13.1447 17.2544 12.8672 17.2544 12.5898C17.2544 12.3123 16.9769 12.0348 16.5607 12.0348Z" fill="#28C445"/>
<path d="M12 0C5.37391 0 0 5.37391 0 12C0 18.6261 5.37391 24 12 24C18.6261 24 24 18.6261 24 12C24 5.37391 18.6261 0 12 0ZM9.72174 15.0783C9.02609 15.0783 8.46957 14.9391 7.8087 14.7826L5.89565 15.7565L6.43478 14.0696C5.06087 13.0957 4.22609 11.8261 4.22609 10.313C4.22609 7.65217 6.71304 5.56522 9.72174 5.56522C12.4174 5.56522 14.8 7.23478 15.2696 9.47826C15.0957 9.46087 14.9217 9.44348 14.7478 9.44348C12.1391 9.47826 10.087 11.4435 10.087 13.8783C10.087 14.2783 10.1565 14.6609 10.2609 15.0435C10.087 15.0609 9.89565 15.0783 9.72174 15.0783ZM17.8609 17.0261L18.2783 18.4174L16.7826 17.5826C16.2435 17.7217 15.687 17.8609 15.1304 17.8609C12.5043 17.8609 10.4348 16.0522 10.4348 13.8087C10.4174 11.5826 12.487 9.77391 15.0957 9.77391C17.5826 9.77391 19.7739 11.6 19.7739 13.8261C19.7739 15.0783 18.9565 16.1913 17.8609 17.0261Z" fill="url(#paint0_linear_3389_6379)"/>
</g>
<defs>
<linearGradient id="paint0_linear_3389_6379" x1="12" y1="0" x2="12" y2="24" gradientUnits="userSpaceOnUse">
<stop stop-color="#02E36F"/>
<stop offset="1" stop-color="#07C160"/>
</linearGradient>
<clipPath id="clip0_3389_6379">
<rect width="24" height="24" rx="12" fill="white"/>
</clipPath>
</defs>
</svg>
